#!OML:ASF E:\Style4\Style4.ASF
:FULLY-SPECIFIED
:DEGREES
918
root 0.0352986 16.567 0.318174 1.53604 16.1863 4.40339
lowerback 11.293 4.11252 0.167093
upperback 4.9863 5.48589 -0.044725
thorax -1.08567 2.75419 -0.794322
lowerneck -6.65201 -1.20104 -3.9277
upperneck 21.7454 -1.12381 0.924971
head 7.82142 -0.703315 0.87908
rclavicle 2.88238e-014 -9.54166e-015
rhumerus -24.3626 27.0465 -53.2578
rradius 134.672
rwrist -74.5176
rhand 57.4666 -5.01629
rfingers 7.12502
rthumb 73.8628 18.8019
lclavicle 2.88238e-014 -9.54166e-015
lhumerus -8.52866 -29.1971 51.442
lradius 136.464
lwrist 73.3991
lhand 37.1777 50.0838
lfingers 7.12502
lthumb 60.0173 63.8459
rfemur -20.9342 -14.3473 14.2618
rtibia 58.6306
rfoot -33.3873 -23.6144
rtoes -10.85
lfemur -25.1278 -4.10049 -24.2203
ltibia 55.4258
lfoot -28.8115 7.85276
ltoes -17.8378
919
root 0.0356703 16.5712 0.315935 1.51397 16.3423 4.43401
lowerback 11.2591 4.07781 0.167622
upperback 4.87583 5.43978 -0.0497579
thorax -1.18243 2.73013 -0.797176
lowerneck -7.44159 -1.17505 -3.84507
upperneck 22.5283 -1.04062 0.835708
head 8.22463 -0.669331 0.842178
rclavicle 6.0033e-014 -1.90833e-014
rhumerus -23.9472 27.6264 -53.3038
rradius 134.435
rwrist -74.5804
rhand 57.8266 -4.73346
rfingers 7.12502
rthumb 73.9895 20.2544
lclavicle 6.0033e-014 -1.90833e-014
lhumerus -8.1617 -29.8925 51.6776
lradius 136.391
lwrist 73.4409
lhand 37.1862 50.184
lfingers 7.12502
lthumb 60.0246 63.9384
rfemur -20.8328 -14.4862 14.2011
rtibia 58.5362
rfoot -33.3119 -23.7052
rtoes -11.0357
lfemur -25.0663 -4.22474 -24.261
ltibia 55.3466
lfoot -28.8135 7.82376
ltoes -17.8515
920
root 0.0342342 16.5745 0.314616 1.49699 16.4874 4.46497
lowerback 11.1937 4.07506 0.136511
upperback 4.79002 5.43336 -0.0312491
thorax -1.2411 2.72563 -0.759412
lowerneck -8.14876 -1.17902 -3.75971
upperneck 23.1652 -0.992546 0.695176
head 8.56905 -0.656443 0.784384
rclavicle 3.29983e-014 4.77083e-015
rhumerus -23.5783 28.0722 -53.279
rradius 134.217
rwrist -74.9244
rhand 58.5546 -4.49607
rfingers 7.12502
rthumb 74.2242 22.9125
lclavicle 3.29983e-014 4.77083e-015
lhumerus -7.7204 -30.5872 51.9128
lradius 136.293
lwrist 73.4681
lhand 37.18 50.2362
lfingers 7.12502
lthumb 60.0193 63.9962
rfemur -20.7452 -14.6092 14.1551
rtibia 58.4534
rfoot -33.2205 -23.8564
rtoes -11.411
lfemur -25.0223 -4.3449 -24.2956
ltibia 55.2854
lfoot -28.7364 7.75542
ltoes -17.6463
921
root 0.0289663 16.5758 0.309633 1.46568 16.6192 4.44319
lowerback 11.2558 4.06705 0.152916
upperback 4.63802 5.42393 -0.0188829
thorax -1.43275 2.71897 -0.767062
lowerneck -8.69562 -1.17439 -3.69285
upperneck 23.6957 -0.954644 0.632745
head 8.85132 -0.642023 0.755182
rclavicle -2.10712e-014 6.36111e-015
rhumerus -23.2445 28.5858 -53.279
rradius 134.087
rwrist -75.2327
rhand 58.8986 -4.38376
rfingers 7.12502
rthumb 74.3248 24.1929
lclavicle -2.10712e-014 6.36111e-015
lhumerus -7.32009 -31.2868 52.0929
lradius 136.117
lwrist 73.4564
lhand 37.2351 50.0493
lfingers 7.12502
lthumb 60.0664 63.7597
rfemur -20.682 -14.6999 14.2066
rtibia 58.3963
rfoot -33.2212 -23.8951
rtoes -11.3746
lfemur -25.0232 -4.42223 -24.25
ltibia 55.2459
lfoot -28.6541 7.68045
ltoes -17.4369
922
root 0.022449 16.5761 0.302247 1.39886 16.7347 4.39315
lowerback 11.3698 4.04088 0.212045
upperback 4.4842 5.39437 -0.0338686
thorax -1.64813 2.70262 -0.827968
lowerneck -9.13881 -1.15103 -3.63198
upperneck 24.1113 -0.919168 0.667208
head 9.07703 -0.618958 0.759872
rclavicle 1.21259e-014 2.38542e-015
rhumerus -22.9126 29.1708 -53.3446
rradius 134.105
rwrist -75.1082
rhand 58.5294 -4.54728
rfingers 7.12502
rthumb 74.2165 22.7763
lclavicle 1.21259e-014 2.38542e-015
lhumerus -7.02237 -31.8449 52.2646
lradius 136.007
lwrist 73.564
lhand 37.1184 49.762
lfingers 7.12502
lthumb 59.9666 63.5773
rfemur -20.5993 -14.7447 14.2942
rtibia 58.3328
rfoot -33.2872 -23.8973
rtoes -11.151
lfemur -25.0065 -4.45549 -24.1692
ltibia 55.2112
lfoot -28.6503 7.76147
ltoes -17.8898
923
root 0.021974 16.5772 0.299707 1.334 16.8545 4.39664
lowerback 11.366 4.02104 0.25933
upperback 4.38968 5.37253 -0.0552864
thorax -1.7383 2.69121 -0.877688
lowerneck -9.55347 -1.15075 -3.59896
upperneck 24.4617 -0.90671 0.674354
head 9.27711 -0.611421 0.757698
rclavicle -4.83047e-014 2.78299e-014
rhumerus -22.6912 29.7515 -53.4784
rradius 134.107
rwrist -74.8854
rhand 58.3383 -4.41796
rfingers 7.12502
rthumb 74.1575 22.2639
lclavicle -4.83047e-014 2.78299e-014
lhumerus -6.77915 -32.3633 52.5141
lradius 135.956
lwrist 73.6342
lhand 37.1532 49.568
lfingers 7.12502
lthumb 59.9964 63.3521
rfemur -20.4583 -14.8501 14.2663
rtibia 58.2307
rfoot -33.205 -23.9859
rtoes -11.3078
lfemur -24.9213 -4.541 -24.1714
ltibia 55.1666
lfoot -28.6683 7.69835
ltoes -17.8487
924
root 0.0243928 16.5809 0.301304 1.26935 16.973 4.37154
lowerback 11.2061 4.00929 0.267068
upperback 4.37142 5.35991 0.0119589
thorax -1.67659 2.68497 -0.79981
lowerneck -9.85225 -1.14916 -3.68296
upperneck 24.6185 -0.873838 0.670252
head 9.38893 -0.605267 0.773599
rclavicle 1.08536e-013 -1.90833e-014
rhumerus -22.3865 30.3105 -53.4287
rradius 134.051
rwrist -74.7733
rhand 58.1257 -4.15782
rfingers 7.12502
rthumb 74.0894 21.8157
lclavicle 1.08536e-013 -1.90833e-014
lhumerus -6.5836 -32.698 52.8957
lradius 135.998
lwrist 73.8239
lhand 37.0618 49.9586
lfingers 7.12502
lthumb 59.9181 63.8246
rfemur -20.2739 -14.9677 14.2481
rtibia 58.0933
rfoot -33.1555 -24.0379
rtoes -11.4799
lfemur -24.8089 -4.60438 -24.1612
ltibia 55.1027
lfoot -28.5781 7.5938
ltoes -17.6649
925
root 0.0252621 16.5871 0.30235 1.20039 17.0847 4.29207
lowerback 11.0249 3.97301 0.283663
upperback 4.37667 5.3164 0.111667
thorax -1.58153 2.66348 -0.687123
lowerneck -10.1535 -1.11309 -3.76614
upperneck 24.7113 -0.790992 0.655739
head 9.47771 -0.577056 0.791134
rclavicle 1.45709e-013 -3.89618e-014
rhumerus -21.9421 30.8272 -53.2515
rradius 134.028
rwrist -75.0086
rhand 57.8662 -4.65422
rfingers 7.12502
rthumb 74.003 20.4635
lclavicle 1.45709e-013 -3.89618e-014
lhumerus -6.40919 -32.824 53.2687
lradius 136.052
lwrist 74.1453
lhand 36.8326 50.5143
lfingers 7.12502
lthumb 59.7218 64.5834
rfemur -20.1023 -15.0647 14.3111
rtibia 57.946
rfoot -33.1548 -24.0703
rtoes -11.6618
lfemur -24.7202 -4.63011 -24.0766
ltibia 55.0308
lfoot -28.508 7.46379
ltoes -17.4399
926
root 0.0248316 16.5908 0.302663 1.15302 17.1714 4.29548
lowerback 11.0025 3.91974 0.312105
upperback 4.30134 5.24847 0.0954549
thorax -1.64438 2.62921 -0.713222
lowerneck -10.4332 -1.04455 -3.72436
upperneck 24.8653 -0.687525 0.641264
head 9.5826 -0.528321 0.790323
rclavicle 6.97734e-014 -7.15625e-015
rhumerus -21.6687 31.3333 -53.2838
rradius 134.044
rwrist -75.7396
rhand 57.9646 -5.50185
rfingers 7.12502
rthumb 74.0362 19.9393
lclavicle 6.97734e-014 -7.15625e-015
lhumerus -6.25837 -33.0612 53.5333
lradius 135.997
lwrist 74.3592
lhand 36.5833 50.6369
lfingers 7.12502
lthumb 59.5076 64.9239
rfemur -19.9708 -15.191 14.279
rtibia 57.8261
rfoot -33.1185 -24.0381
rtoes -11.6392
lfemur -24.6273 -4.65811 -24.0776
ltibia 54.9573
lfoot -28.4899 7.39653
ltoes -17.3987
927
root 0.023435 16.5934 0.30349 1.1124 17.2391 4.29751
lowerback 11.0094 3.88505 0.355118
upperback 4.21192 5.20601 0.0583719
thorax -1.73434 2.60756 -0.77471
lowerneck -10.72 -0.996059 -3.70511
upperneck 25.0491 -0.620001 0.679662
head 9.70094 -0.492728 0.808088
rclavicle 4.4329e-014 4.77083e-015
rhumerus -21.4899 31.8084 -53.4089
rradius 134.032
rwrist -76.214
rhand 57.9033 -5.70702
rfingers 7.12502
rthumb 74.0155 19.5323
lclavicle 4.4329e-014 4.77083e-015
lhumerus -6.15542 -33.4137 53.7597
lradius 135.941
lwrist 74.4968
lhand 36.3907 50.4405
lfingers 7.12502
lthumb 59.3419 64.8936
rfemur -19.8656 -15.2916 14.2565
rtibia 57.7292
rfoot -33.0957 -24.0332
rtoes -11.7023
lfemur -24.5563 -4.66772 -24.0699
ltibia 54.9037
lfoot -28.443 7.34281
ltoes -17.3504
928
root 0.0222292 16.5954 0.302409 1.03571 17.3143 4.24475
lowerback 11.0166 3.85696 0.452607
upperback 4.15636 5.17873 0.0476691
thorax -1.78674 2.59407 -0.839386
lowerneck -11.0291 -0.985177 -3.71035
upperneck 25.253 -0.594549 0.701476
head 9.83259 -0.480765 0.819751
rclavicle 8.74653e-015 3.97569e-015
rhumerus -21.2566 32.2703 -53.4694
rradius 134.007
rwrist -76.2024
rhand 57.3532 -5.51805
rfingers 7.12502
rthumb 73.8215 17.9357
lclavicle 8.74653e-015 3.97569e-015
lhumerus -6.07181 -33.8768 53.9554
lradius 135.984
lwrist 74.6168
lhand 36.3742 50.5237
lfingers 7.12502
lthumb 59.3277 64.9909
rfemur -19.7492 -15.4085 14.2819
rtibia 57.6407
rfoot -33.087 -24.0224
rtoes -11.839
lfemur -24.4881 -4.69532 -24.0119
ltibia 54.8722
lfoot -28.4072 7.33655
ltoes -17.5042
929
root 0.0198416 16.5952 0.300415 0.998034 17.4149 4.19223
lowerback 11.0135 3.81157 0.525873
upperback 4.0829 5.12602 0.0368823
thorax -1.85485 2.5674 -0.887775
lowerneck -11.2701 -0.965431 -3.65189
upperneck 25.3803 -0.555205 0.64837
head 9.92335 -0.464333 0.795863
rclavicle -4.9895e-014 2.14687e-014
rhumerus -21.0671 32.7665 -53.5617
rradius 133.989
rwrist -76.0549
rhand 57.0362 -5.14796
rfingers 7.12502
rthumb 73.7025 17.2969
lclavicle -4.9895e-014 2.14687e-014
lhumerus -5.96548 -34.4108 54.11
lradius 136.047
lwrist 74.6021
lhand 36.525 50.7053
lfingers 7.12502
lthumb 59.4575 65.0427
rfemur -19.6745 -15.5367 14.326
rtibia 57.5689
rfoot -33.1087 -23.9597
rtoes -11.655
lfemur -24.4805 -4.70503 -23.9408
ltibia 54.8611
lfoot -28.4055 7.26492
ltoes -17.5192
930
root 0.0178827 16.5968 0.299247 0.956043 17.5133 4.11193
lowerback 10.9747 3.76731 0.5891
upperback 4.03137 5.07468 0.0631213
thorax -1.88509 2.54151 -0.889058
lowerneck -11.4384 -0.915846 -3.61622
upperneck 25.4152 -0.476434 0.607451
head 9.96627 -0.429954 0.784542
rclavicle 8.54774e-015 -1.43125e-014
rhumerus -20.855 33.1521 -53.5789
rradius 133.947
rwrist -76.1244
rhand 57.3653 -5.07059
rfingers 7.12502
rthumb 73.826 18.4222
lclavicle 8.54774e-015 -1.43125e-014
lhumerus -5.92809 -34.8239 54.412
lradius 135.962
lwrist 74.4704
lhand 36.6907 50.5363
lfingers 7.12502
lthumb 59.6 64.7298
rfemur -19.5887 -15.6562 14.4036
rtibia 57.494
rfoot -33.1204 -23.9321
rtoes -11.6166
lfemur -24.4762 -4.70091 -23.8416
ltibia 54.8577
lfoot -28.3842 7.24611
ltoes -17.7597
931
root 0.0165825 16.598 0.297592 0.902607 17.5841 4.0873
lowerback 10.9436 3.72391 0.599253
upperback 4.00318 5.0186 0.0738327
thorax -1.89857 2.51334 -0.875914
lowerneck -11.6211 -0.865383 -3.6435
upperneck 25.4881 -0.402916 0.649525
head 10.0262 -0.394952 0.812739
rclavicle 2.96189e-014 -2.46493e-014
rhumerus -20.6558 33.5216 -53.5779
rradius 133.915
rwrist -76.1797
rhand 57.5419 -5.12651
rfingers 7.12502
rthumb 73.8899 18.9349
lclavicle 2.96189e-014 -2.46493e-014
lhumerus -6.01045 -35.0096 54.7522
lradius 135.862
lwrist 74.4942
lhand 36.5783 50.4077
lfingers 7.12502
lthumb 59.5034 64.699
rfemur -19.5012 -15.7573 14.414
rtibia 57.4388
rfoot -33.0638 -23.9803
rtoes -11.8275
lfemur -24.4363 -4.7239 -23.8126
ltibia 54.8455
lfoot -28.3345 7.27674
ltoes -17.9313
